<?xml version="1.0" standalone="no"?><!DOCTYPE svg PUBLIC "-//W3C//DTD SVG 1.1//EN" "http://www.w3.org/Graphics/SVG/1.1/DTD/svg11.dtd"><svg t="1604111815066" class="icon" viewBox="0 0 1024 1024" version="1.1" xmlns="http://www.w3.org/2000/svg" p-id="10720" xmlns:xlink="http://www.w3.org/1999/xlink" width="64" height="64"><defs><style type="text/css"></style></defs><path d="M512 512m-512 0a512 512 0 1 0 1024 0 512 512 0 1 0-1024 0Z" fill="#29E284" p-id="10721"></path><path d="M374.481455 680.587636c-78.429091-76.334545-125.486545-183.202909-117.643637-267.170909 0-26.717091 11.776-49.617455 23.528727-68.701091 7.842909-11.450182 19.618909-22.900364 23.528728-26.717091 23.528727-19.083636 39.214545-19.083636 50.967272-7.633454 15.709091 15.266909 66.676364 87.784727 82.385455 122.135273 7.819636 11.450182 0 34.350545-19.618909 49.617454h-3.933091l-3.909818 3.816727c-23.528727 22.900364-31.371636 38.167273-23.528727 57.25091 0 0 0 3.816727 3.909818 3.816727 7.842909 19.083636 19.618909 34.350545 50.967272 68.701091 31.394909 34.350545 54.923636 49.617455 82.385455 57.250909 19.595636 7.633455 27.438545 0 47.034182-26.717091 0-7.633455 3.933091-7.633455 3.933091-11.450182 11.752727-15.266909 23.505455-22.900364 35.281454-22.900364 3.933091 0 7.842909 0 11.776 3.816728 15.685818 7.633455 101.934545 64.884364 117.643637 83.968 3.909818 3.816727 7.842909 11.450182 3.909818 19.083636-3.909818 7.633455-3.909818 11.450182-7.842909 19.083636 0 3.816727-3.909818 3.816727-7.842909 7.633455-3.909818 7.633455-11.752727 11.450182-19.595637 19.083636C688.174545 779.822545 664.669091 791.272727 637.207273 791.272727h-19.618909c-86.272 0-168.610909-38.167273-243.130182-110.685091zM530.618182 279.272727h148.945454c11.170909 0 18.618182 6.818909 18.618182 17.035637v105.565091c0 10.24-7.447273 17.035636-18.618182 17.035636h-148.945454c-11.170909 0-18.618182-10.216727-18.618182-17.035636v-105.565091c0-10.24 7.447273-17.035636 18.618182-17.035637zM721.454545 316.974545l55.854546-58.251636c0-3.630545 6.981818-3.630545 10.472727 0 0 0 3.490909 3.653818 3.490909 7.284364v141.963636c0 3.653818-3.490909 10.938182-6.981818 10.938182s-3.490909 0-6.981818-3.630546L721.454545 357.003636v-40.029091z" fill="#ffffff" p-id="10722" data-spm-anchor-id="a313x.7781069.0.i0" class="selected"></path></svg>