<?xml version="1.0" standalone="no"?><!DOCTYPE svg PUBLIC "-//W3C//DTD SVG 1.1//EN" "http://www.w3.org/Graphics/SVG/1.1/DTD/svg11.dtd"><svg t="1546676054706" class="icon" style="" viewBox="0 0 1024 1024" version="1.1" xmlns="http://www.w3.org/2000/svg" p-id="4570" xmlns:xlink="http://www.w3.org/1999/xlink" width="200" height="200"><defs><style type="text/css"></style></defs><path d="M813.8 295.9L548.2 142.5c-22.4-12.9-50.1-12.9-72.5 0L210.1 295.9c-22.3 12.9-36.2 37-36.2 62.7v306.7c0 25.8 13.9 49.8 36.2 62.8l265.6 153.3c11.2 6.5 23.7 9.7 36.2 9.7 12.5 0 25.1-3.2 36.2-9.7L813.7 728c22.3-12.9 36.2-37 36.2-62.7V358.6c0.2-25.8-13.7-49.8-36.1-62.7z m-13.7 62.7v145l-22.3-12.9-216.4-124.8 23.7-13.7 113.1-65.3 90.6 52.3c7 4 11.3 11.4 11.3 19.4zM512 629.7L308.2 512.1l203.2-117.3 203.8 117.7L512 629.7zM235.1 339.2l265.6-153.4c3.5-2 7.3-3 11.2-3s7.8 1 11.2 3l125 72.2-424.2 245V358.6c0-8 4.3-15.4 11.2-19.4z m-11.2 326.2V560.7l34.3-19.8L462 658.6l-136.1 78.6-90.7-52.4c-7-4-11.3-11.4-11.3-19.4z m564.9 19.4L523.2 838.2c-6.9 4-15.5 4-22.5 0l-124.9-72.1 120.7-69.7 23.2-13.4 245.4-141.7 34.8 20.1v104c0.2 8-4.1 15.4-11.1 19.4z" p-id="4571" fill="#d81e06"></path></svg>