<?xml version="1.0" standalone="no"?><!DOCTYPE svg PUBLIC "-//W3C//DTD SVG 1.1//EN" "http://www.w3.org/Graphics/SVG/1.1/DTD/svg11.dtd"><svg t="1546674821631" class="icon" style="" viewBox="0 0 1024 1024" version="1.1" xmlns="http://www.w3.org/2000/svg" p-id="2329" xmlns:xlink="http://www.w3.org/1999/xlink" width="200" height="200"><defs><style type="text/css"></style></defs><path d="M316.5 894.3c-3.1 0-5.8-0.3-8.1-0.8-11-2.7-16.6-8.9-19.2-13.6-7.1-12.6-2.4-27.7 1.7-41 1.7-5.6 5.3-17.1 4.2-20.3-0.1-0.1-0.3-0.2-0.7-0.4-66-31.5-121.4-77.1-160.3-131.8-40.4-56.8-61.7-121.9-61.7-188.4 0-50.1 11.8-98.6 35-144.3 22.3-43.9 54.2-83.3 94.8-117 82.9-69 192.9-107 309.8-107 24.8 0 49.7 1.7 73.9 5.2 8.2 1.2 13.9 8.8 12.7 17s-8.7 13.9-17 12.7c-22.9-3.2-46.3-4.9-69.7-4.9-55.6 0-109.6 9.1-160.3 26.9-48.9 17.2-92.7 41.8-130.4 73.1-76.7 63.8-119 148.5-119 238.3 0 60.2 19.4 119.3 56.1 171 35.9 50.6 87.4 92.8 148.8 122.1 11.7 5.6 18 16.2 17.9 29.8-0.1 9-3 18.1-5.7 26.9-1.5 4.9-4 12.7-4.1 16.5 8.8 1.2 47-9.4 69.9-15.7 37.1-10.3 60.4-16.5 72.7-15.2 17.8 1.9 35.9 2.9 54 2.9 55.6 0 109.6-9.1 160.3-26.9 48.9-17.2 92.7-41.8 130.4-73.1 76.7-63.8 119-148.5 119-238.3 0-45.6-10.8-89.8-32.1-131.5-20.7-40.5-50.4-76.8-88.2-108-17.9-14.8-37.6-28.2-58.4-40-5.9-3.3-12-6.6-18-9.6-2.5-1.3-4.3-2.2-5.8-3-3.3-1.7-4.7-2.4-10.3-4.9-7.6-3.3-11.2-12.1-7.9-19.7 3.3-7.6 12.1-11.2 19.7-7.9 6.4 2.7 8.6 3.8 12.4 5.8 1.4 0.7 3.1 1.6 5.4 2.8 6.5 3.3 13 6.8 19.3 10.3 22.4 12.6 43.5 27.1 62.7 43 41 33.8 73.3 73.3 95.8 117.5 23.5 45.9 35.4 94.8 35.4 145.1 0 50.1-11.8 98.6-35 144.3-22.3 43.9-54.2 83.3-94.8 117-82.9 69-192.9 107-309.8 107-19.1 0-38.4-1-57.3-3.1-7.4-0.8-39.9 8.3-61.5 14.3-39.1 11-62.3 16.9-76.6 16.9z" fill="#06275B" p-id="2330"></path><path d="M369.9 803.6c-4.7-24.5-20-44.6-43-55.6-54.3-26-99.6-63-131-107.1-30.9-43.5-47.3-93-47.3-143.2 0-87.7 48-150.4 88.2-187.5 54-49.8 128.2-85.5 203.6-97.8 23.1-3.8 46.8-5.7 70.5-5.7 61.9 0 123.8 13 179.1 37.6 52.4 23.4 99.5 60.3 132.5 103.9 34.6 45.7 52.9 97.4 52.9 149.5 0 76.3-37 148.6-104.1 203.5-33.4 27.3-72.4 48.8-115.9 63.9-45.4 15.7-93.6 23.7-143.3 23.7-16.4 0-33-0.9-49.1-2.7-2.8-0.3-5.7-0.5-8.7-0.5-18.8 0-41.9 6.1-81 17-1.2 0.4-2.3 0.7-3.4 1z" fill="#5097FF" p-id="2331"></path><path d="M601.3 547.6c-2.9 0-5.8-0.8-8.3-2.5-6.9-4.6-8.7-13.9-4.1-20.8l33.5-50c4.6-6.9 13.9-8.7 20.8-4.1s8.7 13.9 4.1 20.8l-33.5 50c-2.9 4.3-7.6 6.6-12.5 6.6zM504.4 547.6c-2.9 0-5.8-0.8-8.3-2.5-6.9-4.6-8.7-13.9-4.1-20.8l33.5-50c4.6-6.9 13.9-8.7 20.8-4.1s8.7 13.9 4.1 20.8l-33.5 50c-2.9 4.3-7.7 6.6-12.5 6.6zM407.5 547.6c-2.9 0-5.8-0.8-8.3-2.5-6.9-4.6-8.7-13.9-4.1-20.8l33.5-50c4.6-6.9 13.9-8.7 20.8-4.1s8.7 13.9 4.1 20.8L420 541c-2.9 4.3-7.7 6.6-12.5 6.6z" fill="#06275B" p-id="2332"></path><path d="M628.2 158.1c5.9 1.4-2.8-0.9 3.1 0.7" fill="#FFFFFF" p-id="2333"></path><path d="M631.3 173.8c-1.3 0-2.7-0.2-4-0.5-0.1 0-0.2-0.1-0.3-0.1h-0.2c-0.4-0.1-1-0.2-2-0.5-8.1-1.9-13.1-10-11.1-18 1.8-7.8 9.4-12.7 17.2-11.3 0.7 0.1 1.5 0.2 2.3 0.4 0.5 0.1 1 0.3 1.4 0.4 0.2 0.1 0.5 0.1 0.8 0.2 8 2.2 12.7 10.5 10.5 18.5-2 6.5-8 10.9-14.6 10.9z" fill="#06275B" p-id="2334"></path></svg>