<?xml version="1.0" standalone="no"?><!DOCTYPE svg PUBLIC "-//W3C//DTD SVG 1.1//EN" "http://www.w3.org/Graphics/SVG/1.1/DTD/svg11.dtd"><svg t="1584878543429" class="icon" viewBox="0 0 1025 1024" version="1.1" xmlns="http://www.w3.org/2000/svg" p-id="13396" xmlns:xlink="http://www.w3.org/1999/xlink" width="64.0625" height="64"><defs><style type="text/css"></style></defs><path d="M488.075 152.848c93.575 0.003 175.286 27.378 238.428 79.522l-13.292 31.306c-26.739 57.475-89.588 193.166-95.684 211.772-27.706 84.616 4.025 168.403 72.191 190.738a106.97 106.97 0 0 0 33.459 5.337c36.295 0 71.986-17.816 99.705-49.344-29.195 57.141-79.058 86.041-148.745 86.041-9.683 0-18.584-0.588-26.323-1.412a102.96 102.96 0 0 0-10.927-0.578c-38.97 0-75.862 20.669-93.989 52.662-68.212 120.391-125.709 171.759-192.258 171.759-51.359 0-112.622-31.191-182.095-92.716C64.642 745.977 26.513 598.052 69.034 451.892c45.628-156.847 169.733-265.95 331.981-291.85 29.901-4.775 59.191-7.194 87.06-7.194m0.002-51.2c-30.075 0-61.778 2.509-95.134 7.834C1.241 172.014-119.622 651.261 134.609 876.277c85.352 75.584 156.172 105.575 216.03 105.575 106.931 0 178.947-95.603 236.805-197.722 9.309-16.431 30.198-26.7 49.442-26.7 1.848 0 3.68 0.094 5.486 0.287a300.198 300.198 0 0 0 31.764 1.703c70.289 0 174.77-25.531 214.664-166.488 13.006-46.025 16.008-96.65 9.105-147.378 0 0-96.952 127.466-106.956 134.769-18.513 24.791-43.498 40-67.772 40-5.9 0-11.758-0.9-17.472-2.778-40.32-13.209-58.03-69.638-39.52-126.166 5.803-17.709 93.448-206.106 93.448-206.106l28.114-66.134c-68.834-69.894-168.716-117.487-299.67-117.491z" fill="#1296db" p-id="13397"></path><path d="M232.46 347.104c44.923 0 81.242 36.419 81.242 81.242 0 44.923-36.419 81.242-81.242 81.242s-81.242-36.419-81.242-81.242c0-44.923 36.419-81.242 81.242-81.242z m-46.824 371.793c-44.823 0-81.242-36.419-81.242-81.242 0-44.823 36.319-81.242 81.242-81.242s81.242 36.419 81.242 81.242c0 44.923-36.419 81.242-81.242 81.242z m159.382 162.584c-44.823 0-81.242-36.319-81.242-81.242s36.419-81.242 81.242-81.242c44.923 0 81.242 36.419 81.242 81.242s-36.319 81.242-81.242 81.242z m65.634-512.566c-44.823 0-81.242-36.319-81.242-81.242 0-44.823 36.419-81.242 81.242-81.242s81.242 36.419 81.242 81.242c0 44.924-36.419 81.242-81.242 81.242zM940.426 68.46c-52.627 3.402-96.05 59.031-98.051 61.432-35.819 42.622-30.216 106.255 12.506 142.074 42.622 35.818 106.255 30.216 142.074-12.406 13.007-15.408 20.411-33.718 22.712-52.327 19.41-91.647-20.411-153.579-20.411-153.579s-6.203 11.404-58.83 14.806z m-232.32 513.166c19.81 11.506 52.727-1.901 73.538-30.016l96.95-130.968c-45.123-10.405-85.644-38.42-111.758-60.231-2.401-2.001-4.702-4.002-6.904-5.903L696.9 502.585c-13.507 32.016-8.604 67.535 11.206 79.041z" fill="#1296db" p-id="13398"></path><path d="M845.177 283.371c-16.008-13.407-27.414-30.216-34.218-48.525l-28.915 68.035c25.613 25.413 81.642 69.736 132.769 69.036l52.927-71.437c-39.52 17.409-87.245 12.507-122.563-17.109z" fill="#1296db" p-id="13399"></path></svg>